<svg width="25" height="24" viewBox="0 0 25 24" fill="none" xmlns="http://www.w3.org/2000/svg">
<g clip-path="url(#clip0_89_790)">
<mask id="mask0_89_790" style="mask-type:alpha" maskUnits="userSpaceOnUse" x="0" y="0" width="25" height="24">
<path d="M24.8655 0H0.865479V24H24.8655V0Z" fill="#ffffff"/>
</mask>
<g mask="url(#mask0_89_790)">
<path d="M19.1608 12.6827C19.1501 10.7162 20.0392 9.23204 21.8388 8.13898C20.8319 6.69765 19.3108 5.90465 17.3023 5.74926C15.4009 5.59923 13.3227 6.85839 12.5622 6.85839C11.7588 6.85839 9.9163 5.80284 8.47018 5.80284C5.48153 5.85106 2.30542 8.1872 2.30542 12.9399C2.30542 14.3437 2.56251 15.7939 3.07669 17.2906C3.76225 19.2571 6.23673 24.0794 8.81832 23.999C10.168 23.9669 11.1214 23.0399 12.8782 23.0399C14.5814 23.0399 15.4651 23.999 16.9702 23.999C19.5732 23.9615 21.812 19.5786 22.4654 17.6068C18.9733 15.9618 19.1608 12.7845 19.1608 12.6827ZM16.1293 3.88464C17.5915 2.14861 17.4576 0.56796 17.4147 0C16.1239 0.0750136 14.6296 0.878731 13.778 1.86998C12.8407 2.93089 12.289 4.24363 12.4069 5.72247C13.8048 5.82963 15.0795 5.11164 16.1293 3.88464Z" fill="#ffffff"/>
</g>
</g>
<defs>
<clipPath id="clip0_89_790">
<rect width="24" height="24" fill="white" transform="translate(0.865479)"/>
</clipPath>
</defs>
</svg>
