<svg xmlns="http://www.w3.org/2000/svg" width="75" height="75" viewBox="0 0 75 75" fill="none">
    <g id="icon_quarantee" opacity="0.2">
        <path id="Vector" d="M73.7309 33.5205C75.7611 31.3357 75.1885 28.5266 72.4816 27.2781C69.7747 26.0296 68.4212 22.7524 69.4623 19.9433C70.5035 17.1342 68.8897 14.7933 65.9225 14.6373C62.9553 14.5332 60.4046 11.9843 60.3005 9.01915C60.1964 6.05402 57.8018 4.44141 54.9908 5.4818C52.1798 6.5222 48.9003 5.16968 47.703 2.46465C46.4536 -0.240377 43.6426 -0.812595 41.4563 1.21618C40.3631 2.20455 38.9055 2.72475 37.5 2.72475C36.0424 2.72475 34.6369 2.20455 33.5438 1.21618C31.3574 -0.812595 28.5464 -0.240377 27.297 2.46465C26.0477 5.16968 22.7682 6.5222 19.9572 5.4818C17.1461 4.44141 14.8036 6.05402 14.6475 9.01915C14.5433 11.9843 11.9926 14.5332 9.02541 14.6373C6.05822 14.7413 4.44449 17.1342 5.48561 19.9433C6.52673 22.7524 5.17327 26.0296 2.46636 27.2781C-0.240544 28.5266 -0.813159 31.3357 1.21702 33.5205C3.2472 35.7053 3.2472 39.2947 1.21702 41.4795C-0.813159 43.6643 -0.240544 46.4734 2.46636 47.7219C5.17327 48.9704 6.52673 52.2476 5.48561 55.0567C4.44449 57.8658 6.05822 60.2066 9.02541 60.3627C11.9926 60.5188 14.5433 63.0157 14.6475 65.9809C14.7516 68.946 17.1461 70.5586 19.9572 69.5182C22.7682 68.4778 26.0477 69.8303 27.297 72.5353C28.5464 75.2404 31.3574 75.8126 33.5438 73.7838C34.6369 72.7954 36.0945 72.2752 37.5 72.2752C38.9576 72.2752 40.3631 72.7954 41.4563 73.7838C43.6426 75.8126 46.4536 75.2404 47.703 72.5353C48.9523 69.8303 52.2318 68.4778 55.0429 69.5182C57.8539 70.5586 60.1964 68.946 60.3526 65.9809C60.4567 63.0157 63.0074 60.4667 65.9746 60.3627C68.9418 60.2587 70.5555 57.8658 69.5144 55.0567C68.4733 52.2476 69.8267 48.9704 72.5336 47.7219C75.2406 46.4734 75.8132 43.6643 73.783 41.4795C71.7528 39.2947 71.7528 35.7053 73.7309 33.5205Z" fill="#199CF3"/>
        <path id="Vector_2" d="M37.3756 68.9778C19.9369 68.9778 5.72559 54.7764 5.72559 37.3497C5.72559 19.9231 19.9369 5.72168 37.3756 5.72168C54.8143 5.72168 69.0256 19.9231 69.0256 37.3497C69.0256 54.8284 54.8664 68.9778 37.3756 68.9778ZM37.3756 7.38631C20.8218 7.38631 7.33932 20.8594 7.33932 37.4017C7.33932 53.944 20.8218 67.4172 37.3756 67.4172C53.9294 67.4172 67.4119 53.944 67.4119 37.4017C67.4119 20.8594 53.9294 7.38631 37.3756 7.38631Z" fill="white"/>
        <path id="Vector_3" d="M37.4276 16.126C25.663 16.126 16.1367 25.6456 16.1367 37.4021C16.1367 49.1586 25.663 58.6782 37.4276 58.6782C49.1922 58.6782 58.7185 49.1586 58.7185 37.4021C58.7705 25.6976 49.1922 16.126 37.4276 16.126ZM37.4276 56.4934C26.9123 56.4934 18.3751 47.9621 18.3751 37.4021C18.3751 26.8941 26.9123 18.3628 37.4276 18.3628C47.9429 18.3628 56.4801 26.8941 56.4801 37.4021C56.5321 47.9621 47.9949 56.4934 37.4276 56.4934Z" fill="white"/>
        <path id="Vector_4" d="M67.8802 30.6914H7.28711V44.0605H67.8802V30.6914Z" fill="white"/>
        <g id="GUARANTEE">
            <path d="M14.889 36.3929C14.7887 36.2278 14.6501 36.101 14.4731 36.0126C14.302 35.9242 14.0984 35.8799 13.8625 35.8799C13.4259 35.8799 13.0808 36.0214 12.8271 36.3044C12.5793 36.5874 12.4554 36.9677 12.4554 37.4452C12.4554 37.9817 12.5881 38.3915 12.8536 38.6745C13.125 38.9515 13.5173 39.0901 14.0306 39.0901C14.6383 39.0901 15.0719 38.8159 15.3315 38.2677H13.5881V37.0207H16.827V38.701C16.6914 39.0311 16.4908 39.3407 16.2253 39.6295C15.9657 39.9184 15.6353 40.1572 15.2341 40.3459C14.833 40.5286 14.3757 40.62 13.8625 40.62C13.2371 40.62 12.6825 40.4873 12.1988 40.222C11.7209 39.9508 11.3492 39.5765 11.0837 39.0989C10.8241 38.6155 10.6943 38.0643 10.6943 37.4452C10.6943 36.8321 10.8241 36.2867 11.0837 35.8092C11.3492 35.3258 11.7209 34.9514 12.1988 34.6861C12.6766 34.4149 13.2282 34.2793 13.8536 34.2793C14.6383 34.2793 15.2872 34.468 15.8005 34.8453C16.3138 35.2226 16.6324 35.7385 16.7562 36.3929H14.889Z" fill="#199CF3"/>
            <path d="M19.215 34.3412V37.9581C19.215 38.2942 19.2917 38.5536 19.445 38.7364C19.6043 38.9191 19.8433 39.0105 20.1619 39.0105C20.4804 39.0105 20.7194 38.9191 20.8787 38.7364C21.0439 38.5477 21.1265 38.2883 21.1265 37.9581V34.3412H22.861V37.9581C22.861 38.53 22.74 39.0193 22.4981 39.4261C22.2562 39.827 21.9259 40.1307 21.507 40.337C21.094 40.5375 20.6338 40.6377 20.1265 40.6377C19.6191 40.6377 19.1648 40.5375 18.7636 40.337C18.3684 40.1307 18.0557 39.827 17.8256 39.4261C17.6014 39.0252 17.4893 38.5359 17.4893 37.9581V34.3412H19.215Z" fill="#199CF3"/>
            <path d="M27.6743 39.5588H25.4619L25.1257 40.5758H23.3027L25.577 34.3412H27.577L29.8425 40.5758H28.0106L27.6743 39.5588ZM27.2407 38.2323L26.5681 36.216L25.9044 38.2323H27.2407Z" fill="#199CF3"/>
            <path d="M33.4786 40.5758L32.2396 38.2765H32.0538V40.5758H30.3193V34.3412H33.0538C33.5553 34.3412 33.98 34.4296 34.3281 34.6065C34.6762 34.7775 34.9387 35.0162 35.1157 35.3228C35.2927 35.6235 35.3812 35.9625 35.3812 36.3398C35.3812 36.7643 35.2632 37.1387 35.0272 37.4629C34.7971 37.7813 34.4579 38.0083 34.0095 38.1439L35.4166 40.5758H33.4786ZM32.0538 37.0915H32.9122C33.1482 37.0915 33.3252 37.0355 33.4432 36.9235C33.5612 36.8114 33.6202 36.6493 33.6202 36.4371C33.6202 36.2366 33.5582 36.0804 33.4343 35.9684C33.3163 35.8505 33.1423 35.7915 32.9122 35.7915H32.0538V37.0915Z" fill="#199CF3"/>
            <path d="M40.0284 39.5588H37.816L37.4797 40.5758H35.6567L37.931 34.3412H39.931L42.1965 40.5758H40.3647L40.0284 39.5588ZM39.5947 38.2323L38.9222 36.216L38.2585 38.2323H39.5947Z" fill="#199CF3"/>
            <path d="M48.4521 40.5758H46.7176L44.4078 37.0915V40.5758H42.6733V34.3412H44.4078L46.7176 37.8697V34.3412H48.4521V40.5758Z" fill="#199CF3"/>
            <path d="M54.0507 34.3412V35.7208H52.387V40.5758H50.6525V35.7208H49.0065V34.3412H54.0507Z" fill="#199CF3"/>
            <path d="M56.3384 35.7296V36.7466H58.3296V38.0643H56.3384V39.1874H58.5951V40.5758H54.6039V34.3412H58.5951V35.7296H56.3384Z" fill="#199CF3"/>
            <path d="M61.0981 35.7296V36.7466H63.0893V38.0643H61.0981V39.1874H63.3548V40.5758H59.3636V34.3412H63.3548V35.7296H61.0981Z" fill="#199CF3"/>
        </g>
        <g id="100%">
            <path d="M28.2412 24.629V23.2889H30.4859V28.6126H28.9919V24.629H28.2412Z" fill="white"/>
            <path d="M31.1397 25.8743C31.1397 25.0392 31.3098 24.3813 31.6499 23.9007C31.99 23.42 32.5244 23.1797 33.2532 23.1797C33.982 23.1797 34.5164 23.42 34.8565 23.9007C35.2015 24.3813 35.3739 25.0392 35.3739 25.8743C35.3739 26.7191 35.2039 27.3818 34.8638 27.8625C34.5237 28.3432 33.9868 28.5835 33.2532 28.5835C32.5195 28.5835 31.9827 28.3432 31.6426 27.8625C31.3073 27.3818 31.1397 26.7191 31.1397 25.8743ZM33.9601 25.8743C33.9601 25.4373 33.914 25.1048 33.8216 24.8766C33.7293 24.6435 33.5398 24.527 33.2532 24.527C32.9665 24.527 32.7771 24.6435 32.6847 24.8766C32.5924 25.1048 32.5463 25.4373 32.5463 25.8743C32.5463 26.321 32.59 26.6608 32.6774 26.8939C32.7698 27.1221 32.9617 27.2362 33.2532 27.2362C33.5447 27.2362 33.7342 27.1221 33.8216 26.8939C33.914 26.6608 33.9601 26.321 33.9601 25.8743Z" fill="white"/>
            <path d="M35.8566 25.8743C35.8566 25.0392 36.0266 24.3813 36.3667 23.9007C36.7068 23.42 37.2413 23.1797 37.9701 23.1797C38.6988 23.1797 39.2333 23.42 39.5734 23.9007C39.9183 24.3813 40.0908 25.0392 40.0908 25.8743C40.0908 26.7191 39.9208 27.3818 39.5807 27.8625C39.2406 28.3432 38.7037 28.5835 37.9701 28.5835C37.2364 28.5835 36.6996 28.3432 36.3595 27.8625C36.0242 27.3818 35.8566 26.7191 35.8566 25.8743ZM38.677 25.8743C38.677 25.4373 38.6308 25.1048 38.5385 24.8766C38.4462 24.6435 38.2567 24.527 37.9701 24.527C37.6834 24.527 37.4939 24.6435 37.4016 24.8766C37.3093 25.1048 37.2631 25.4373 37.2631 25.8743C37.2631 26.321 37.3069 26.6608 37.3943 26.8939C37.4866 27.1221 37.6786 27.2362 37.9701 27.2362C38.2616 27.2362 38.4511 27.1221 38.5385 26.8939C38.6308 26.6608 38.677 26.321 38.677 25.8743Z" fill="white"/>
            <path d="M40.4787 24.6581C40.4787 24.2454 40.5953 23.9298 40.8285 23.7113C41.0618 23.4928 41.3678 23.3836 41.7468 23.3836C42.1209 23.3836 42.4246 23.4928 42.6578 23.7113C42.891 23.9298 43.0076 24.2454 43.0076 24.6581C43.0076 25.0659 42.891 25.3815 42.6578 25.6048C42.4246 25.8233 42.1209 25.9326 41.7468 25.9326C41.3727 25.9326 41.0666 25.8233 40.8285 25.6048C40.5953 25.3815 40.4787 25.0659 40.4787 24.6581ZM45.6531 23.4637L42.891 28.6126H41.5209L44.283 23.4637H45.6531ZM41.7395 24.2211C41.5403 24.2211 41.4407 24.3668 41.4407 24.6581C41.4407 24.9494 41.5403 25.0951 41.7395 25.0951C41.8367 25.0951 41.912 25.0586 41.9654 24.9858C42.0237 24.913 42.0529 24.8037 42.0529 24.6581C42.0529 24.5124 42.0237 24.4032 41.9654 24.3304C41.912 24.2575 41.8367 24.2211 41.7395 24.2211ZM44.1664 27.411C44.1664 27.0031 44.283 26.69 44.5162 26.4715C44.7543 26.2482 45.0603 26.1365 45.4345 26.1365C45.8086 26.1365 46.1098 26.2482 46.3381 26.4715C46.5714 26.69 46.688 27.0031 46.688 27.411C46.688 27.8237 46.5714 28.1417 46.3381 28.365C46.1098 28.5835 45.8086 28.6927 45.4345 28.6927C45.0603 28.6927 44.7543 28.5835 44.5162 28.365C44.283 28.1417 44.1664 27.8237 44.1664 27.411ZM45.4272 26.974C45.2231 26.974 45.1211 27.1197 45.1211 27.411C45.1211 27.7071 45.2231 27.8552 45.4272 27.8552C45.5195 27.8552 45.5924 27.8188 45.6458 27.746C45.7041 27.6683 45.7333 27.5566 45.7333 27.411C45.7333 27.2702 45.7041 27.1634 45.6458 27.0905C45.5924 27.0128 45.5195 26.974 45.4272 26.974Z" fill="white"/>
        </g>
    </g>
</svg>