<svg xmlns="http://www.w3.org/2000/svg" viewBox="0 0 16 16" fill="none" id="star">
    <g id="star_star (4) 4" clip-path="url(#star_clip0_43_3782)">
        <path id="star_Vector" d="M15.977 6.16436C15.9219 5.99461 15.7752 5.87095 15.5987 5.84533L10.6386 5.12452L8.42035 0.629933C8.34139 0.469902 8.17845 0.368652 8.00001 0.368652C7.82161 0.368652 7.65864 0.469902 7.57967 0.629933L5.3613 5.12449L0.40134 5.84533C0.224809 5.87095 0.0780589 5.99461 0.0229653 6.1643C-0.0321909 6.33405 0.013809 6.52033 0.141559 6.64483L3.73055 10.1434L2.88343 15.0835C2.85327 15.2594 2.92558 15.4371 3.06993 15.542C3.21427 15.6468 3.40558 15.6607 3.56358 15.5776L7.99998 13.2452L12.4363 15.5776C12.5048 15.6137 12.5797 15.6314 12.6543 15.6314C12.7515 15.6314 12.8483 15.6013 12.9299 15.542C13.0743 15.4371 13.1466 15.2593 13.1164 15.0835L12.269 10.1434L15.8584 6.64483C15.9862 6.5203 16.0322 6.33402 15.977 6.16436Z" fill="url(#star_paint0_linear_43_3782)"></path>
    </g>
    <defs>
        <linearGradient id="star_paint0_linear_43_3782" x1="8" y1="0.368652" x2="8" y2="15.6315" gradientUnits="userSpaceOnUse">
            <stop stop-color="#F9E167"></stop>
            <stop offset="1" stop-color="#FFB61F"></stop>
        </linearGradient>
        <clipPath id="star_clip0_43_3782">
            <rect width="16" height="16" fill="white"></rect>
        </clipPath>
    </defs>
</svg>