<svg xmlns="http://www.w3.org/2000/svg" viewBox="0 0 21 20" fill="inherit" id="commas">
    <g id="commas_right 1" clip-path="url(#commas_clip0_57_2676)">
        <g id="commas_Page-1">
            <g id="commas_glyph">
                <g id="commas_quote-right-saying-speech">
                    <path id="commas_Combined-Shape" d="M5.08469 2.5C2.55339 2.5 0.501361 4.55203 0.501361 7.08333C0.501361 8.95299 1.47465 10.762 2.9273 11.1111C3.48764 11.2457 3.93389 11.9648 3.838 12.7857C3.70966 13.8844 2.71606 14.9945 0.748736 15.8693C0.310699 16.0641 0.494115 16.723 0.96979 16.6634C6.09693 16.0215 9.65092 12.679 9.66797 7.94987C9.66803 4.69754 7.74654 2.5 5.08469 2.5Z" fill="#ff3e2d"></path>
                    <path id="commas_Combined-Shape_2" d="M15.0847 2.5C12.5534 2.5 10.5014 4.55203 10.5014 7.08333C10.5014 8.95299 11.4747 10.762 12.9273 11.1111C13.4876 11.2457 13.9339 11.9648 13.838 12.7857C13.7097 13.8844 12.7161 14.9945 10.7487 15.8693C10.3107 16.0641 10.4941 16.723 10.9698 16.6634C16.0969 16.0215 19.6509 12.679 19.668 7.94987C19.668 4.69754 17.7465 2.5 15.0847 2.5Z" fill="#ff3e2d"></path>
                </g>
            </g>
        </g>
    </g>
</svg>