<svg xmlns="http://www.w3.org/2000/svg" viewBox="0 0 400 300" width="400" height="300"
     preserveAspectRatio="xMidYMid meet"
     style="width: 100%; height: 100%; transform: translate3d(0px, 0px, 0px); content-visibility: visible;">
    <defs>
        <clipPath id="__lottie_element_2">
            <rect width="400" height="300" x="0" y="0"></rect>
        </clipPath>
        <linearGradient id="__lottie_element_6" spreadMethod="pad" gradientUnits="userSpaceOnUse"
                        x1="15.868000030517578" y1="15.527999877929688" x2="-16.26300048828125"
                        y2="-14.428000450134277">
            <stop offset="0%" stop-color="rgb(255,182,31)"></stop>
            <stop offset="50%" stop-color="rgb(252,203,67)"></stop>
            <stop offset="100%" stop-color="rgb(249,225,103)"></stop>
        </linearGradient>
        <linearGradient id="__lottie_element_10" spreadMethod="pad" gradientUnits="userSpaceOnUse"
                        x1="16.41699981689453" y1="16.49799919128418" x2="-16.084999084472656" y2="-15.956000328063965">
            <stop offset="0%" stop-color="rgb(255,182,31)"></stop>
            <stop offset="50%" stop-color="rgb(252,203,67)"></stop>
            <stop offset="100%" stop-color="rgb(249,225,103)"></stop>
        </linearGradient>
        <linearGradient id="__lottie_element_14" spreadMethod="pad" gradientUnits="userSpaceOnUse"
                        x1="13.029999732971191" y1="13.128999710083008" x2="-13.015000343322754"
                        y2="-12.85200023651123">
            <stop offset="0%" stop-color="rgb(255,182,31)"></stop>
            <stop offset="50%" stop-color="rgb(252,203,67)"></stop>
            <stop offset="100%" stop-color="rgb(249,225,103)"></stop>
        </linearGradient>
        <linearGradient id="__lottie_element_18" spreadMethod="pad" gradientUnits="userSpaceOnUse"
                        x1="15.868000030517578" y1="15.527999877929688" x2="-16.26300048828125"
                        y2="-14.428000450134277">
            <stop offset="0%" stop-color="rgb(255,182,31)"></stop>
            <stop offset="50%" stop-color="rgb(252,203,67)"></stop>
            <stop offset="100%" stop-color="rgb(249,225,103)"></stop>
        </linearGradient>
        <linearGradient id="__lottie_element_22" spreadMethod="pad" gradientUnits="userSpaceOnUse"
                        x1="8.951000213623047" y1="8.592000007629395" x2="-8.842000007629395" y2="-8.706999778747559">
            <stop offset="0%" stop-color="rgb(255,182,31)"></stop>
            <stop offset="50%" stop-color="rgb(252,203,67)"></stop>
            <stop offset="100%" stop-color="rgb(249,225,103)"></stop>
        </linearGradient>
        <linearGradient id="__lottie_element_26" spreadMethod="pad" gradientUnits="userSpaceOnUse" x1="8.96399974822998"
                        y1="8.58899974822998" x2="-8.704999923706055" y2="-8.864999771118164">
            <stop offset="0%" stop-color="rgb(255,182,31)"></stop>
            <stop offset="50%" stop-color="rgb(252,203,67)"></stop>
            <stop offset="100%" stop-color="rgb(249,225,103)"></stop>
        </linearGradient>
        <linearGradient id="__lottie_element_30" spreadMethod="pad" gradientUnits="userSpaceOnUse"
                        x1="8.791000366210938" y1="8.059000015258789" x2="-8.555000305175781" y2="-8.831000328063965">
            <stop offset="0%" stop-color="rgb(255,182,31)"></stop>
            <stop offset="50%" stop-color="rgb(252,203,67)"></stop>
            <stop offset="100%" stop-color="rgb(249,225,103)"></stop>
        </linearGradient>
    </defs>
    <g clip-path="url(#__lottie_element_2)">
        <g transform="matrix(1,0,0,1,295,39)" opacity="1" style="display: block;">
            <g opacity="1" transform="matrix(1,0,0,1,0,0)">
                <path fill="url(#__lottie_element_30)" fill-opacity="1"
                      d=" M1.2359999418258667,-7.940999984741211 C0.7870000004768372,-9.053000450134277 -0.7870000004768372,-9.053000450134277 -1.2359999418258667,-7.940999984741211 C-1.2359999418258667,-7.940999984741211 -2.9539999961853027,-3.690000057220459 -2.9539999961853027,-3.690000057220459 C-3.0889999866485596,-3.3550000190734863 -3.3550000190734863,-3.0889999866485596 -3.690000057220459,-2.9539999961853027 C-3.690000057220459,-2.9539999961853027 -7.940999984741211,-1.2359999418258667 -7.940999984741211,-1.2359999418258667 C-9.053000450134277,-0.7870000004768372 -9.053000450134277,0.7870000004768372 -7.940999984741211,1.2359999418258667 C-7.940999984741211,1.2359999418258667 -3.690000057220459,2.9539999961853027 -3.690000057220459,2.9539999961853027 C-3.3550000190734863,3.0889999866485596 -3.0889999866485596,3.3550000190734863 -2.9539999961853027,3.690000057220459 C-2.9539999961853027,3.690000057220459 -1.2359999418258667,7.940999984741211 -1.2359999418258667,7.940999984741211 C-0.7870000004768372,9.053000450134277 0.7870000004768372,9.053000450134277 1.2359999418258667,7.940999984741211 C1.2359999418258667,7.940999984741211 2.9539999961853027,3.690000057220459 2.9539999961853027,3.690000057220459 C3.0889999866485596,3.3550000190734863 3.3550000190734863,3.0889999866485596 3.690000057220459,2.9539999961853027 C3.690000057220459,2.9539999961853027 7.940999984741211,1.2359999418258667 7.940999984741211,1.2359999418258667 C9.053000450134277,0.7870000004768372 9.053000450134277,-0.7870000004768372 7.940999984741211,-1.2359999418258667 C7.940999984741211,-1.2359999418258667 3.690000057220459,-2.9539999961853027 3.690000057220459,-2.9539999961853027 C3.3550000190734863,-3.0889999866485596 3.0889999866485596,-3.3550000190734863 2.9539999961853027,-3.690000057220459 C2.9539999961853027,-3.690000057220459 1.2359999418258667,-7.940999984741211 1.2359999418258667,-7.940999984741211z"></path>
            </g>
        </g>
        <g transform="matrix(1,0,0,1,361,238.06199645996094)" opacity="1" style="display: block;">
            <g opacity="1" transform="matrix(1,0,0,1,0,0)">
                <path fill="url(#__lottie_element_26)" fill-opacity="1"
                      d=" M1.2359999418258667,-7.940999984741211 C0.7870000004768372,-9.053000450134277 -0.7870000004768372,-9.053000450134277 -1.2359999418258667,-7.940999984741211 C-1.2359999418258667,-7.940999984741211 -2.9539999961853027,-3.690000057220459 -2.9539999961853027,-3.690000057220459 C-3.0889999866485596,-3.3550000190734863 -3.3550000190734863,-3.0889999866485596 -3.690000057220459,-2.9539999961853027 C-3.690000057220459,-2.9539999961853027 -7.940999984741211,-1.2359999418258667 -7.940999984741211,-1.2359999418258667 C-9.053000450134277,-0.7870000004768372 -9.053000450134277,0.7870000004768372 -7.940999984741211,1.2359999418258667 C-7.940999984741211,1.2359999418258667 -3.690000057220459,2.9539999961853027 -3.690000057220459,2.9539999961853027 C-3.3550000190734863,3.0889999866485596 -3.0889999866485596,3.3550000190734863 -2.9539999961853027,3.690000057220459 C-2.9539999961853027,3.690000057220459 -1.2359999418258667,7.940999984741211 -1.2359999418258667,7.940999984741211 C-0.7870000004768372,9.053000450134277 0.7870000004768372,9.053000450134277 1.2359999418258667,7.940999984741211 C1.2359999418258667,7.940999984741211 2.9539999961853027,3.690000057220459 2.9539999961853027,3.690000057220459 C3.0889999866485596,3.3550000190734863 3.3550000190734863,3.0889999866485596 3.690000057220459,2.9539999961853027 C3.690000057220459,2.9539999961853027 7.940999984741211,1.2359999418258667 7.940999984741211,1.2359999418258667 C9.053000450134277,0.7870000004768372 9.053000450134277,-0.7870000004768372 7.940999984741211,-1.2359999418258667 C7.940999984741211,-1.2359999418258667 3.690000057220459,-2.9539999961853027 3.690000057220459,-2.9539999961853027 C3.3550000190734863,-3.0889999866485596 3.0889999866485596,-3.3550000190734863 2.9539999961853027,-3.690000057220459 C2.9539999961853027,-3.690000057220459 1.2359999418258667,-7.940999984741211 1.2359999418258667,-7.940999984741211z"></path>
            </g>
        </g>
        <g transform="matrix(1,0,0,1,72,282.56201171875)" opacity="1" style="display: block;">
            <g opacity="1" transform="matrix(1,0,0,1,0,0)">
                <path fill="url(#__lottie_element_22)" fill-opacity="1"
                      d=" M1.2359999418258667,-7.940999984741211 C0.7870000004768372,-9.053000450134277 -0.7870000004768372,-9.053000450134277 -1.2359999418258667,-7.940999984741211 C-1.2359999418258667,-7.940999984741211 -2.9539999961853027,-3.690000057220459 -2.9539999961853027,-3.690000057220459 C-3.0889999866485596,-3.3550000190734863 -3.3550000190734863,-3.0889999866485596 -3.690000057220459,-2.9539999961853027 C-3.690000057220459,-2.9539999961853027 -7.940999984741211,-1.2359999418258667 -7.940999984741211,-1.2359999418258667 C-9.053000450134277,-0.7870000004768372 -9.053000450134277,0.7870000004768372 -7.940999984741211,1.2359999418258667 C-7.940999984741211,1.2359999418258667 -3.690000057220459,2.9539999961853027 -3.690000057220459,2.9539999961853027 C-3.3550000190734863,3.0889999866485596 -3.0889999866485596,3.3550000190734863 -2.9539999961853027,3.690000057220459 C-2.9539999961853027,3.690000057220459 -1.2359999418258667,7.940999984741211 -1.2359999418258667,7.940999984741211 C-0.7870000004768372,9.053000450134277 0.7870000004768372,9.053000450134277 1.2359999418258667,7.940999984741211 C1.2359999418258667,7.940999984741211 2.9539999961853027,3.690000057220459 2.9539999961853027,3.690000057220459 C3.0889999866485596,3.3550000190734863 3.3550000190734863,3.0889999866485596 3.690000057220459,2.9539999961853027 C3.690000057220459,2.9539999961853027 7.940999984741211,1.2359999418258667 7.940999984741211,1.2359999418258667 C9.053000450134277,0.7870000004768372 9.053000450134277,-0.7870000004768372 7.940999984741211,-1.2359999418258667 C7.940999984741211,-1.2359999418258667 3.690000057220459,-2.9539999961853027 3.690000057220459,-2.9539999961853027 C3.3550000190734863,-3.0889999866485596 3.0889999866485596,-3.3550000190734863 2.9539999961853027,-3.690000057220459 C2.9539999961853027,-3.690000057220459 1.2359999418258667,-7.940999984741211 1.2359999418258667,-7.940999984741211z"></path>
            </g>
        </g>
        <g transform="matrix(1,0,0,1,352.5,87.5)" opacity="1" style="display: block;">
            <g opacity="1" transform="matrix(1,0,0,1,0,0)">
                <path fill="url(#__lottie_element_18)" fill-opacity="1" d=" M1.8539999723434448,-11.91100025177002 C1.1799999475479126,-13.579000473022461 -1.1799999475479126,-13.579000473022461 -1.8539999723434448,-11.91100025177002 C-1.8539999723434448,-11.91100025177002 -4.431000232696533,-5.535999774932861 -4.431000232696533,-5.535999774932861 C-4.633999824523926,-5.0329999923706055 -5.0329999923706055,-4.633999824523926 -5.535999774932861,-4.431000232696533 C-5.535999774932861,-4.431000232696533 -11.91100025177002,-1.8539999723434448 -11.91100025177002,-1.8539999723434448
 C-13.579000473022461,-1.1799999475479126 -13.579000473022461,1.1799999475479126 -11.91100025177002,1.8539999723434448 C-11.91100025177002,1.8539999723434448 -5.535999774932861,4.431000232696533 -5.535999774932861,4.431000232696533 C-5.0329999923706055,4.633999824523926 -4.633999824523926,5.0329999923706055 -4.431000232696533,5.535999774932861 C-4.431000232696533,5.535999774932861 -1.8539999723434448,11.91100025177002 -1.8539999723434448,11.91100025177002 C-1.1799999475479126,13.579000473022461 1.1799999475479126,13.579000473022461 1.8539999723434448,11.91100025177002 C1.8539999723434448,11.91100025177002 4.431000232696533,5.535999774932861 4.431000232696533,5.535999774932861 C4.633999824523926,5.0329999923706055 5.0329999923706055,4.633999824523926 5.535999774932861,4.431000232696533 C5.535999774932861,4.431000232696533 11.91100025177002,1.8539999723434448 11.91100025177002,1.8539999723434448 C13.579000473022461,1.1799999475479126 13.579000473022461,-1.1799999475479126 11.91100025177002,-1.8539999723434448 C11.91100025177002,-1.8539999723434448 5.535999774932861,-4.431000232696533 5.535999774932861,-4.431000232696533 C5.0329999923706055,-4.633999824523926 4.633999824523926,-5.0329999923706055 4.431000232696533,-5.535999774932861 C4.431000232696533,-5.535999774932861 1.8539999723434448,-11.91100025177002 1.8539999723434448,-11.91100025177002z"></path>
            </g>
        </g>
        <g transform="matrix(1,0,0,1,35.5,240.06199645996094)" opacity="1" style="display: block;">
            <g opacity="1" transform="matrix(1,0,0,1,0,0)">
                <path fill="url(#__lottie_element_14)" fill-opacity="1"
                      d=" M1.8539999723434448,-11.91100025177002 C1.1799999475479126,-13.579000473022461 -1.1799999475479126,-13.579000473022461 -1.8539999723434448,-11.91100025177002 C-1.8539999723434448,-11.91100025177002 -4.431000232696533,-5.535999774932861 -4.431000232696533,-5.535999774932861 C-4.633999824523926,-5.0329999923706055 -5.0329999923706055,-4.633999824523926 -5.535999774932861,-4.431000232696533 C-5.535999774932861,-4.431000232696533 -11.91100025177002,-1.8539999723434448 -11.91100025177002,-1.8539999723434448 C-13.579000473022461,-1.1799999475479126 -13.579000473022461,1.1799999475479126 -11.91100025177002,1.8539999723434448 C-11.91100025177002,1.8539999723434448 -5.535999774932861,4.431000232696533 -5.535999774932861,4.431000232696533 C-5.0329999923706055,4.633999824523926 -4.633999824523926,5.0329999923706055 -4.431000232696533,5.535999774932861 C-4.431000232696533,5.535999774932861 -1.8539999723434448,11.91100025177002 -1.8539999723434448,11.91100025177002 C-1.1799999475479126,13.579000473022461 1.1799999475479126,13.579000473022461 1.8539999723434448,11.91100025177002 C1.8539999723434448,11.91100025177002 4.431000232696533,5.535999774932861 4.431000232696533,5.535999774932861 C4.633999824523926,5.0329999923706055 5.0329999923706055,4.633999824523926 5.535999774932861,4.431000232696533 C5.535999774932861,4.431000232696533 11.91100025177002,1.8539999723434448 11.91100025177002,1.8539999723434448 C13.579000473022461,1.1799999475479126 13.579000473022461,-1.1799999475479126 11.91100025177002,-1.8539999723434448 C11.91100025177002,-1.8539999723434448 5.535999774932861,-4.431000232696533 5.535999774932861,-4.431000232696533 C5.0329999923706055,-4.633999824523926 4.633999824523926,-5.0329999923706055 4.431000232696533,-5.535999774932861 C4.431000232696533,-5.535999774932861 1.8539999723434448,-11.91100025177002 1.8539999723434448,-11.91100025177002z"></path>
            </g>
        </g>
        <g transform="matrix(1,0,0,1,318.5,280.56201171875)" opacity="1" style="display: block;">
            <g opacity="1" transform="matrix(1,0,0,1,0,0)">
                <path fill="url(#__lottie_element_10)" fill-opacity="1"
                      d=" M2.247999906539917,-14.437999725341797 C1.430999994277954,-16.458999633789062 -1.430999994277954,-16.458999633789062 -2.247999906539917,-14.437999725341797 C-2.247999906539917,-14.437999725341797 -5.369999885559082,-6.710000038146973 -5.369999885559082,-6.710000038146973 C-5.616000175476074,-6.099999904632568 -6.099999904632568,-5.616000175476074 -6.710000038146973,-5.369999885559082 C-6.710000038146973,-5.369999885559082 -14.437999725341797,-2.247999906539917 -14.437999725341797,-2.247999906539917 C-16.458999633789062,-1.430999994277954 -16.458999633789062,1.430999994277954 -14.437999725341797,2.247999906539917 C-14.437999725341797,2.247999906539917 -6.710000038146973,5.369999885559082 -6.710000038146973,5.369999885559082 C-6.099999904632568,5.616000175476074 -5.616000175476074,6.099999904632568 -5.369999885559082,6.710000038146973 C-5.369999885559082,6.710000038146973 -2.247999906539917,14.437999725341797 -2.247999906539917,14.437999725341797 C-1.430999994277954,16.458999633789062 1.430999994277954,16.458999633789062 2.247999906539917,14.437999725341797 C2.247999906539917,14.437999725341797 5.369999885559082,6.710000038146973 5.369999885559082,6.710000038146973 C5.616000175476074,6.099999904632568 6.099999904632568,5.616000175476074 6.710000038146973,5.369999885559082 C6.710000038146973,5.369999885559082 14.437999725341797,2.247999906539917 14.437999725341797,2.247999906539917 C16.458999633789062,1.430999994277954 16.458999633789062,-1.430999994277954 14.437999725341797,-2.247999906539917 C14.437999725341797,-2.247999906539917 6.710000038146973,-5.369999885559082 6.710000038146973,-5.369999885559082 C6.099999904632568,-5.616000175476074 5.616000175476074,-6.099999904632568 5.369999885559082,-6.710000038146973 C5.369999885559082,-6.710000038146973 2.247999906539917,-14.437999725341797 2.247999906539917,-14.437999725341797z"></path>
            </g>
        </g>
        <g transform="matrix(1.0000003576278687,0,0,1.0000003576278687,52,74)" opacity="1" style="display: block;">
            <g opacity="1" transform="matrix(1,0,0,1,0,0)">
                <path fill="url(#__lottie_element_6)" fill-opacity="1"
                      d=" M2.247999906539917,-14.437999725341797 C1.430999994277954,-16.458999633789062 -1.430999994277954,-16.458999633789062 -2.247999906539917,-14.437999725341797 C-2.247999906539917,-14.437999725341797 -5.369999885559082,-6.710000038146973 -5.369999885559082,-6.710000038146973 C-5.616000175476074,-6.099999904632568 -6.099999904632568,-5.616000175476074 -6.710000038146973,-5.369999885559082 C-6.710000038146973,-5.369999885559082 -14.437999725341797,-2.247999906539917 -14.437999725341797,-2.247999906539917 C-16.458999633789062,-1.430999994277954 -16.458999633789062,1.430999994277954 -14.437999725341797,2.247999906539917 C-14.437999725341797,2.247999906539917 -6.710000038146973,5.369999885559082 -6.710000038146973,5.369999885559082 C-6.099999904632568,5.616000175476074 -5.616000175476074,6.099999904632568 -5.369999885559082,6.710000038146973 C-5.369999885559082,6.710000038146973 -2.247999906539917,14.437999725341797 -2.247999906539917,14.437999725341797 C-1.430999994277954,16.458999633789062 1.430999994277954,16.458999633789062 2.247999906539917,14.437999725341797 C2.247999906539917,14.437999725341797 5.369999885559082,6.710000038146973 5.369999885559082,6.710000038146973 C5.616000175476074,6.099999904632568 6.099999904632568,5.616000175476074 6.710000038146973,5.369999885559082 C6.710000038146973,5.369999885559082 14.437999725341797,2.247999906539917 14.437999725341797,2.247999906539917 C16.458999633789062,1.430999994277954 16.458999633789062,-1.430999994277954 14.437999725341797,-2.247999906539917 C14.437999725341797,-2.247999906539917 6.710000038146973,-5.369999885559082 6.710000038146973,-5.369999885559082 C6.099999904632568,-5.616000175476074 5.616000175476074,-6.099999904632568 5.369999885559082,-6.710000038146973 C5.369999885559082,-6.710000038146973 2.247999906539917,-14.437999725341797 2.247999906539917,-14.437999725341797z"></path>
            </g>
        </g>
    </g>
</svg>