<svg xmlns="http://www.w3.org/2000/svg" viewBox="0 0 33 64" fill="none" id="right-leaf">
    <g id="right-leaf_element" clip-path="url(#right-leaf_clip0_66_5076)">
        <g id="right-leaf_Group">
            <path id="right-leaf_Union" fill-rule="evenodd" clip-rule="evenodd" d="M9.41016 0C11.1375 0.110662 12.8414 0.905848 14.2588 2.11839C14.9675 2.72545 15.6061 3.43527 16.1388 4.21781C16.4051 4.60828 16.6465 5.01774 16.8568 5.43983C16.9627 5.65009 17.0593 5.86509 17.1496 6.08325C17.2384 6.3109 17.3178 6.54487 17.3879 6.77568C17.4767 7.08553 17.5561 7.3859 17.6044 7.69101C17.6543 7.99771 17.6838 8.30598 17.6869 8.6269C17.3879 8.59528 17.1075 8.53995 16.8319 8.46723C16.5577 8.39451 16.2852 8.31388 16.0141 8.21903C15.8101 8.14631 15.6123 8.06568 15.4145 7.97874C15.2073 7.89179 15.0018 7.79693 14.7993 7.69418C14.3959 7.48708 14.0034 7.24995 13.628 6.98278C12.8757 6.45002 12.1888 5.80502 11.5954 5.07939C10.4085 3.62814 9.59862 1.85122 9.41016 0.00158122V0ZM12.1914 11.708C12.8238 11.1943 13.5293 10.8259 14.2894 10.6172C14.3844 10.5919 14.4794 10.5682 14.5776 10.5461C14.6741 10.5255 14.7723 10.5113 14.8719 10.4987C15.0697 10.4718 15.2691 10.456 15.47 10.4497C15.8719 10.437 16.2878 10.4591 16.6927 10.5303C16.8968 10.5651 17.1008 10.6093 17.3048 10.6631C17.5089 10.7168 17.716 10.7785 17.9138 10.8544C18.1132 10.9302 18.3125 11.014 18.5104 11.1073C18.7082 11.2022 18.906 11.3018 19.0944 11.4187C19.2845 11.5341 19.4714 11.6575 19.6567 11.7887C19.7486 11.8551 19.8405 11.923 19.9308 11.9926C20.0196 12.0637 20.1068 12.138 20.1925 12.2139C20.3654 12.3657 20.5336 12.5254 20.6987 12.6929C20.7149 12.71 20.7313 12.7268 20.7477 12.7436C20.7723 12.7687 20.7968 12.7938 20.8202 12.8194L20.937 12.9522C20.9697 12.9908 21.0024 13.0294 21.035 13.0683C21.0125 13.0236 20.9903 12.9787 20.9684 12.9335C20.9427 12.879 20.9166 12.8249 20.8906 12.7708L20.8905 12.7707L20.8904 12.7705C20.8644 12.7164 20.8383 12.6623 20.8126 12.6078C20.7098 12.3913 20.6148 12.1699 20.5276 11.947C20.484 11.8348 20.4419 11.7225 20.4014 11.6087L20.4011 11.6079C20.3592 11.4959 20.3172 11.384 20.2784 11.272C20.2005 11.0459 20.1288 10.8167 20.065 10.5859L20.0297 10.455C19.979 10.2675 19.9289 10.0821 19.8859 9.89345C19.8314 9.66106 19.7846 9.42867 19.7457 9.19312C19.7068 8.95598 19.6694 8.72676 19.6413 8.49278C19.6117 8.25881 19.5899 8.02484 19.5759 7.79087C19.5494 7.31977 19.5401 6.86289 19.5666 6.40601C19.579 6.17837 19.5993 5.9523 19.6289 5.72781C19.642 5.62294 19.6578 5.51945 19.6738 5.41476L19.6738 5.41472L19.6738 5.41469L19.6738 5.41465L19.6738 5.41462L19.6772 5.39266C19.6927 5.28042 19.7099 5.16976 19.7286 5.0591C19.8828 4.1738 20.1631 3.33277 20.6023 2.60082L20.5992 2.59766C20.8079 2.78894 21.0104 2.98814 21.2067 3.19523C21.3048 3.29799 21.3998 3.40233 21.4948 3.50983C21.5704 3.5957 21.6376 3.67943 21.7059 3.76454L21.7503 3.81968C22.0805 4.23704 22.3842 4.6702 22.6427 5.13656C22.7736 5.36737 22.8966 5.60134 23.0103 5.83689C23.124 6.07403 23.2237 6.31906 23.3187 6.56252C23.4121 6.80598 23.4978 7.05101 23.5726 7.29763C23.6458 7.54741 23.7096 7.79719 23.7642 8.04539C23.8187 8.29517 23.8654 8.54179 23.8997 8.78999C23.9324 9.03977 23.9557 9.28797 23.9713 9.53459C23.9853 9.77963 23.9916 10.0231 23.9869 10.2618C23.9822 10.5021 23.9635 10.7424 23.9386 10.9764C23.8856 11.4459 23.8 11.8933 23.6691 12.3233C23.5383 12.7549 23.3701 13.1611 23.1676 13.539C22.8919 14.0385 22.5898 14.4764 22.1661 14.8669L22.1636 14.8638C21.6608 15.1086 21.1595 15.2303 20.6333 15.3204C20.2361 15.382 19.8358 15.4105 19.4371 15.4073C19.0368 15.4057 18.6303 15.3773 18.2362 15.3188C18.0369 15.2903 17.8437 15.2524 17.6459 15.2113C17.4481 15.1702 17.2519 15.1228 17.0587 15.069C16.8656 15.0153 16.674 14.9536 16.4871 14.8872C16.2971 14.8208 16.1071 14.7497 15.9217 14.6722C15.7364 14.5947 15.5557 14.5094 15.3781 14.4177C15.1975 14.3292 15.0183 14.2343 14.8454 14.1315C14.671 14.0304 14.5044 13.9197 14.3361 13.8059C14.1664 13.6936 14.0028 13.5735 13.844 13.4486C13.5293 13.1941 13.2178 12.9237 12.9344 12.6202C12.8844 12.5673 12.8337 12.5103 12.785 12.4557L12.7272 12.391C12.6633 12.3198 12.601 12.2487 12.5403 12.1744C12.4188 12.0258 12.3036 11.8709 12.1945 11.7065L12.1914 11.708ZM19.4169 17.7568C18.6257 17.7774 17.8563 17.9655 17.1289 18.3133H17.1305C17.78 19.8325 18.8064 21.0245 20.0695 21.962C20.3826 22.1975 20.7097 22.4157 21.0586 22.6117C21.395 22.8109 21.7501 22.9927 22.1208 23.1508C22.4853 23.3105 22.8576 23.4512 23.2438 23.5634C23.4354 23.6203 23.6332 23.6693 23.8279 23.7136C24.021 23.7579 24.2173 23.7942 24.4151 23.8227C24.9416 23.8923 25.4509 23.9255 26.0022 23.8432L26.0013 23.837C26.5071 23.592 26.9133 23.2618 27.3087 22.8605C27.4551 22.7072 27.5953 22.5443 27.7292 22.372C27.8616 22.1997 27.9831 22.0195 28.0983 21.8298C28.3273 21.4504 28.5313 21.033 28.6933 20.5872C28.8506 20.143 28.9752 19.6687 29.0656 19.1707C29.1435 18.6791 29.1917 18.1605 29.1964 17.6309C29.1948 17.3685 29.184 17.1013 29.1653 16.8326C29.1466 16.5638 29.1201 16.2904 29.0749 16.0232C28.9877 15.4857 28.8709 14.9371 28.6964 14.4091C28.6123 14.1435 28.5204 13.8779 28.4161 13.6171C28.3086 13.3594 28.1918 13.1033 28.0672 12.8519C28.0049 12.727 27.941 12.6006 27.8741 12.4773C27.8055 12.3539 27.7339 12.2354 27.6607 12.1152C27.5143 11.8765 27.3601 11.6425 27.1965 11.4149L27.195 11.4102C26.6171 12.0156 26.1686 12.7602 25.8384 13.5791C25.6733 13.9886 25.5268 14.4249 25.4147 14.8676C25.3586 15.0889 25.3088 15.3134 25.2652 15.541C25.2184 15.7702 25.1779 16.0026 25.1452 16.2366C25.1125 16.469 25.086 16.7045 25.0658 16.9401L25.0558 17.0646C25.0398 17.2604 25.0237 17.4594 25.016 17.6562C25.0051 17.8965 25.0019 18.1368 25.005 18.3755C25.0035 18.6174 25.0066 18.8609 25.0191 19.1012C25.0667 19.9931 25.1731 20.8932 25.3718 21.7726C24.9838 20.9689 24.4864 20.2478 23.8918 19.6618C23.7313 19.5021 23.5694 19.3504 23.4011 19.2097C23.2283 19.069 23.0522 18.9393 22.8747 18.8176C22.6956 18.6959 22.5196 18.5821 22.3311 18.4825C22.1426 18.3829 21.9526 18.2928 21.7626 18.2121C21.5726 18.1331 21.381 18.0619 21.1879 18.0019C20.9916 17.9434 20.7954 17.896 20.5976 17.858C20.2019 17.7821 19.8126 17.7458 19.4169 17.7568ZM20.2695 25.6212C20.6636 25.5611 21.0639 25.539 21.4486 25.5611C21.8364 25.5833 22.2211 25.6465 22.5996 25.7524C22.7881 25.8062 22.9765 25.8694 23.1619 25.9421C23.3441 26.0164 23.5217 26.1018 23.6977 26.1982C23.8737 26.2931 24.0481 26.399 24.2179 26.5144L24.2361 26.5271L24.2362 26.5272C24.3146 26.5816 24.3951 26.6376 24.4702 26.6962C24.5512 26.7594 24.6307 26.8258 24.7101 26.8938C24.8674 27.0298 25.0216 27.1752 25.1711 27.3301C25.2459 27.4076 25.3206 27.4867 25.3907 27.5689C25.4593 27.6511 25.5278 27.7364 25.5948 27.8218C25.7287 27.9957 25.8564 28.1759 25.9795 28.3656C25.9898 28.3822 26.0006 28.3988 26.0114 28.4154L26.0114 28.4155L26.0114 28.4156L26.0115 28.4157L26.0115 28.4157L26.0116 28.4158L26.0116 28.4159L26.0117 28.416C26.0316 28.4468 26.0517 28.4778 26.0698 28.5095L26.1524 28.6565C26.2069 28.7545 26.2598 28.8557 26.3128 28.9585C26.4156 29.164 26.5168 29.3742 26.601 29.5924C26.6835 29.8106 26.7598 30.035 26.8268 30.2627C26.8611 30.3765 26.8938 30.4919 26.9234 30.6089C26.9498 30.7259 26.9732 30.8429 26.9966 30.963C27.0277 31.1265 27.0544 31.2923 27.0777 31.4592C27.0922 31.2908 27.1108 31.1226 27.1324 30.9552C27.148 30.8351 27.1666 30.7133 27.1869 30.5932C27.204 30.473 27.2212 30.3529 27.2414 30.2343C27.2804 29.9956 27.3271 29.7569 27.3816 29.5198L27.3916 29.4736C27.4395 29.2523 27.4869 29.0335 27.5451 28.8147C27.5747 28.6977 27.6074 28.5807 27.6417 28.4653L27.6931 28.2914L27.7429 28.1191C27.8099 27.8899 27.8831 27.6607 27.9626 27.4346L27.9771 27.3941L27.9772 27.394C28.0128 27.295 28.0488 27.1952 28.0872 27.0979L28.126 26.9937C28.1545 26.917 28.1828 26.841 28.2118 26.7659C28.2974 26.5461 28.3893 26.328 28.4875 26.113C28.5357 26.0055 28.5871 25.8995 28.6385 25.7936L28.6773 25.7134L28.6773 25.7133C28.7148 25.6354 28.7517 25.5588 28.7912 25.4822C28.8955 25.2767 29.0046 25.0743 29.1214 24.8767C29.2366 24.6791 29.3597 24.4862 29.4843 24.2981C29.6073 24.1116 29.735 23.9313 29.869 23.7574C30.1369 23.4096 30.4282 23.0871 30.7412 22.801C31.0558 22.5133 31.3829 22.2651 31.738 22.0596V22.0611C31.8455 22.3378 31.9281 22.6239 32.0075 22.9101C32.0464 23.0539 32.0823 23.1978 32.1165 23.3417C32.1508 23.4855 32.1835 23.6294 32.2084 23.7764C32.3081 24.3613 32.3829 24.9463 32.3875 25.5312C32.3922 25.8237 32.3938 26.1114 32.3766 26.3975C32.3564 26.6852 32.3283 26.9682 32.2925 27.248C32.2738 27.3872 32.2536 27.5263 32.2318 27.6622C32.2053 27.7998 32.1773 27.9357 32.1461 28.0701C32.0854 28.3389 32.0168 28.6013 31.9405 28.8574C31.9031 28.9854 31.8595 29.1119 31.8144 29.2352C31.7692 29.3601 31.7209 29.4818 31.6726 29.602C31.5745 29.8423 31.4686 30.0747 31.358 30.2976C31.1244 30.745 30.8596 31.1544 30.5761 31.5228C30.506 31.6145 30.4313 31.7046 30.3549 31.7899C30.2786 31.8769 30.2008 31.9607 30.1213 32.0413C29.964 32.2041 29.8005 32.3543 29.6338 32.4934C29.4671 32.6325 29.2958 32.7606 29.1198 32.876C28.9407 32.9914 28.7585 33.0957 28.5715 33.1874C28.0752 33.4243 27.5896 33.5902 27.0358 33.641L27.0355 33.6426C26.4904 33.5241 26.0215 33.3091 25.5465 33.0561C25.3689 32.9581 25.196 32.8554 25.0263 32.7447C24.8549 32.634 24.6852 32.5186 24.5201 32.3985C24.355 32.2783 24.1961 32.1519 24.0403 32.0222C23.9625 31.9574 23.8861 31.891 23.8114 31.8246L23.8097 31.8231L23.8097 31.8231L23.8097 31.8231L23.8097 31.823C23.7355 31.7556 23.6613 31.6881 23.5855 31.6207C23.2834 31.3456 23.0061 31.0547 22.746 30.7559C22.6105 30.6057 22.4812 30.454 22.3597 30.2991C22.299 30.2216 22.2383 30.1441 22.1806 30.0651L22.1376 30.0058C22.0947 29.9465 22.0518 29.8872 22.0062 29.8279C21.8894 29.6699 21.7788 29.5086 21.676 29.3458C21.6246 29.2636 21.5747 29.1829 21.5265 29.0992C21.4751 29.017 21.4252 28.9347 21.3769 28.851C21.2804 28.685 21.1916 28.5158 21.1106 28.3451L21.1105 28.3449C21.0264 28.1742 20.9424 28.0035 20.8707 27.8281C20.7321 27.4788 20.5935 27.1231 20.5 26.7547C20.4867 26.6986 20.4716 26.6418 20.4565 26.5852C20.447 26.5494 20.4375 26.5136 20.4284 26.4781C20.405 26.3848 20.3832 26.2915 20.3645 26.1967C20.3383 26.07 20.3192 25.9406 20.3 25.8107C20.2906 25.7475 20.2813 25.6843 20.2711 25.6212H20.2695ZM22.2024 33.6312C21.8442 33.4715 21.461 33.3514 21.0716 33.2676C21.0634 33.3179 21.0548 33.3683 21.0462 33.4188C21.0223 33.5586 20.9984 33.6989 20.9813 33.8383C20.9564 34.0296 20.9455 34.2193 20.9361 34.4106C20.9236 34.6018 20.919 34.7931 20.9237 34.9844C20.9248 35.0553 20.9286 35.127 20.9324 35.199L20.9361 35.2721C20.9392 35.3686 20.9439 35.465 20.9501 35.5614C20.9642 35.7543 20.986 35.9472 21.0155 36.1416L21.0168 36.1509L21.0168 36.151C21.0429 36.3408 21.0691 36.5321 21.1075 36.7234C21.1261 36.8214 21.1464 36.9178 21.1697 37.0159L21.1763 37.043L21.1949 37.1182L21.1949 37.1184C21.2108 37.1821 21.2267 37.2455 21.2398 37.3083C21.285 37.5028 21.338 37.6972 21.3972 37.8917C21.5218 38.2822 21.6495 38.6679 21.8099 39.052L21.8103 39.0531C21.8507 39.1492 21.891 39.2452 21.9345 39.3398L21.9999 39.482C22.0209 39.5261 22.0418 39.5657 22.0641 39.608L22.0669 39.6133C22.1572 39.7872 22.2538 39.9626 22.3566 40.1365L22.4082 40.2234C22.4946 40.369 22.58 40.5128 22.6697 40.6566C22.7787 40.829 22.8924 40.9997 23.0108 41.1688C23.246 41.5072 23.492 41.8344 23.7677 42.1474C24.1384 42.56 24.4998 42.9347 24.9701 43.254L24.9755 43.2452L24.9727 43.2551C25.2406 43.3389 25.5022 43.3863 25.7654 43.41C26.0302 43.4337 26.2934 43.4305 26.5629 43.4084C26.9679 43.3705 27.3837 43.2804 27.7902 43.1318C27.9912 43.0575 28.1937 42.9689 28.3946 42.8662C28.5955 42.7634 28.798 42.648 28.9896 42.5152C29.1843 42.3824 29.3758 42.237 29.5659 42.0789L29.706 41.9587L29.84 41.8433C29.9288 41.7643 30.016 41.6821 30.1032 41.5983C30.449 41.2616 30.7885 40.8853 31.0845 40.4632C31.2355 40.253 31.3804 40.0332 31.5206 39.8056C31.5922 39.6918 31.6561 39.5732 31.7199 39.4546C31.7838 39.3361 31.8461 39.2143 31.9068 39.091C32.0268 38.8444 32.1451 38.5915 32.2479 38.3306C32.3476 38.0682 32.4395 37.7994 32.5252 37.5244C32.5672 37.3868 32.6077 37.2477 32.6467 37.1086C32.6805 36.9773 32.7101 36.8419 32.7395 36.7075L32.7448 36.6833C32.8055 36.3972 32.8569 36.1063 32.9006 35.8138C32.9411 35.5198 32.9629 35.221 32.98 34.9222C32.9971 34.6218 33.0065 34.3215 32.9909 34.0195L32.9893 34.0227C32.589 34.0891 32.2043 34.2092 31.8196 34.3673C31.4349 34.527 31.0611 34.7262 30.6997 34.9586C30.5191 35.074 30.3415 35.1989 30.1686 35.3301L30.1226 35.3654C29.9641 35.487 29.8016 35.6117 29.6468 35.7443C29.4771 35.8881 29.3089 36.0399 29.1469 36.1964C29.0056 36.3329 28.868 36.4741 28.7276 36.6181L28.7275 36.6182L28.7274 36.6183L28.7273 36.6184L28.6656 36.6817C28.5067 36.8477 28.351 37.0185 28.2014 37.1955C28.1011 37.312 28.0056 37.4313 27.909 37.552C27.8601 37.6131 27.8109 37.6746 27.7607 37.7362C27.6158 37.9196 27.4741 38.1077 27.3401 38.3006C27.2732 38.3954 27.2062 38.4934 27.1423 38.5915C27.1194 38.6258 27.0961 38.6601 27.0727 38.6946L27.0725 38.695L27.0724 38.695L27.0724 38.695C27.0292 38.7587 26.9859 38.8225 26.9445 38.8871C26.6844 39.2839 26.4554 39.6981 26.2265 40.1202C26.1159 40.332 26.0115 40.547 25.9134 40.7668C25.8385 40.9233 25.7668 41.0807 25.6989 41.2401C25.7304 41.0673 25.7577 40.8948 25.7801 40.723C25.805 40.4812 25.819 40.2393 25.8252 39.999C25.8455 39.5216 25.8034 39.0441 25.7365 38.5841C25.7193 38.4703 25.7006 38.3565 25.6788 38.2426C25.6539 38.1304 25.6274 38.0166 25.5994 37.9059C25.5433 37.683 25.4795 37.4664 25.4078 37.2546C25.3393 37.0427 25.2505 36.8356 25.1586 36.6364C25.0652 36.4357 24.967 36.2428 24.8611 36.0578C24.7583 35.8729 24.6384 35.6942 24.5138 35.5235C24.3892 35.3543 24.2584 35.1915 24.1229 35.0382C23.9858 34.8832 23.8487 34.7394 23.6961 34.6034C23.5434 34.4675 23.3877 34.3394 23.2257 34.2224C22.9033 33.9885 22.5606 33.7909 22.2024 33.6312ZM19.5251 40.6289C19.8647 40.8502 20.1808 41.1 20.4705 41.3798C20.6169 41.5205 20.7525 41.666 20.8786 41.8193C21.0063 41.9727 21.1263 42.1339 21.24 42.3015C21.3521 42.4691 21.4596 42.6461 21.553 42.8263C21.6465 43.0066 21.7306 43.1947 21.8069 43.3876C21.9642 43.7764 22.067 44.1812 22.1418 44.6096C22.2773 45.4569 22.2524 46.377 22.0359 47.2765C21.8364 48.1115 21.4826 48.9341 20.9906 49.6725C21.6313 49.0783 22.3146 48.549 23.0328 48.0758C23.8053 47.5683 24.6059 47.1162 25.4376 46.7494C25.8472 46.5613 26.2725 46.4032 26.6883 46.2593C26.8986 46.1882 27.1089 46.1249 27.3207 46.0696C27.5325 46.0143 27.7397 45.9621 27.9499 45.9194C28.1602 45.8767 28.3705 45.8435 28.5807 45.8198C28.791 45.7961 28.9997 45.7819 29.2053 45.7756C29.6165 45.7645 30.0246 45.7961 30.4233 45.8799L30.4217 45.8815C30.0292 47.0972 29.4234 48.207 28.6944 49.1334C27.9655 50.0614 27.1057 50.7996 26.2164 51.3292C25.774 51.598 25.3146 51.8035 24.8629 51.9679C24.6355 52.0485 24.4065 52.1118 24.1807 52.1655C23.9548 52.2193 23.7321 52.2635 23.5063 52.2872C22.6138 52.3979 21.7556 52.3015 20.9846 52.0217C20.4706 51.8256 20.0111 51.5869 19.5781 51.2138L19.5805 51.2106L19.5734 51.2161C19.2541 50.726 19.0501 50.2249 18.8678 49.6906C18.5984 48.8796 18.4411 48.0354 18.3585 47.1991L18.351 47.1087C18.3361 46.931 18.3211 46.7514 18.3118 46.573C18.3009 46.3903 18.2983 46.2112 18.2958 46.0315V46.0314L18.2947 45.9549C18.2869 45.5423 18.3071 45.1439 18.3336 44.7487C18.3928 43.9614 18.5221 43.22 18.7121 42.5323C18.9037 41.843 19.1669 41.2138 19.5236 40.6305L19.5251 40.6289ZM16.4414 48.8262C16.2701 48.0042 15.9508 47.2374 15.4866 46.5371C14.8916 46.9813 14.3761 47.5141 13.9244 48.1227C13.8668 48.1986 13.8123 48.2761 13.7577 48.3551L13.6775 48.4745L13.5973 48.5938C13.4914 48.7535 13.3917 48.9211 13.2952 49.0918C13.197 49.2594 13.1036 49.4333 13.0148 49.6119L12.9661 49.712L12.9494 49.7463L12.9484 49.7482C12.9269 49.7923 12.9055 49.8363 12.884 49.8807C12.8404 49.9708 12.7983 50.0609 12.7578 50.1542C12.7173 50.2459 12.6768 50.3407 12.6394 50.4356C12.6005 50.5289 12.5631 50.6237 12.5257 50.7186C12.451 50.9083 12.384 51.1059 12.3201 51.3035C12.2547 51.4995 12.194 51.6987 12.1395 51.9026C12.1114 52.0038 12.0865 52.1065 12.0616 52.2093L12.0616 52.2093C12.0367 52.3103 12.0134 52.4127 11.9901 52.5152L11.9899 52.516C11.8996 52.9271 11.8326 53.3539 11.7859 53.776C11.7407 54.1997 11.7236 54.6344 11.7329 55.0613C11.7532 55.632 11.803 56.1774 11.9666 56.7481L11.9827 56.7425L11.9688 56.7525C12.2756 57.2505 12.6432 57.6299 13.0746 57.9856C13.4032 58.2512 13.7584 58.4709 14.1446 58.659C14.5325 58.8487 14.9421 58.991 15.3767 59.0938C15.4857 59.1191 15.5947 59.1428 15.7069 59.1633C15.8174 59.1839 15.928 59.1997 16.0417 59.2139C16.2676 59.2408 16.4996 59.2598 16.7348 59.2677C16.9685 59.2724 17.2052 59.2645 17.4466 59.2487C17.5666 59.2408 17.6881 59.2297 17.8095 59.2155C17.931 59.1997 18.0525 59.1807 18.174 59.1602C18.2955 59.1396 18.4185 59.1159 18.5416 59.0906C18.6646 59.0653 18.7877 59.0369 18.9092 59.0021C19.1537 58.9357 19.3998 58.8582 19.6459 58.7713C19.8889 58.6796 20.1318 58.5768 20.3748 58.4646C20.4963 58.4093 20.6162 58.3476 20.7346 58.2844C20.853 58.2211 20.9714 58.1547 21.0897 58.0868C22.0314 57.537 22.9155 56.7962 23.6596 55.8929L23.6612 55.8941V55.8909L23.6596 55.8929C22.998 55.405 22.2214 55.075 21.4028 54.8823C20.9916 54.7827 20.5648 54.7116 20.1365 54.6736C19.9216 54.6547 19.702 54.6373 19.4839 54.6309C19.2651 54.6231 19.0478 54.6262 18.8275 54.6293L18.8251 54.6294C17.9404 54.6483 17.0448 54.7621 16.1663 54.9661C15.3452 55.1546 14.5363 55.4171 13.752 55.7639C14.4389 55.2301 15.0258 54.5739 15.4773 53.8519C15.9601 53.0741 16.2919 52.2236 16.4539 51.3667C16.4959 51.1549 16.5224 50.9351 16.5426 50.7217C16.5613 50.5067 16.5722 50.2949 16.5707 50.0815C16.566 49.653 16.5239 49.2357 16.4414 48.8262ZM9.41426 50.9498C9.651 51.7719 9.73356 52.6066 9.66036 53.4492C9.62142 53.865 9.54199 54.2792 9.42517 54.6902C9.36598 54.8926 9.29588 55.0933 9.21644 55.2909C9.13701 55.4885 9.04979 55.6893 8.94855 55.8774C8.84887 56.0672 8.73985 56.2553 8.62303 56.4402C8.56384 56.5335 8.50621 56.6205 8.44391 56.7074C8.38317 56.7944 8.31931 56.8829 8.25233 56.9651C7.98599 57.305 7.6776 57.6133 7.33338 57.8899C6.69581 58.4035 5.93075 58.785 5.10672 58.9901C5.95159 58.9985 6.79385 59.0708 7.63478 59.1869C8.08647 59.2485 8.53815 59.3308 8.98672 59.4209L9.32315 59.492C9.43374 59.5173 9.549 59.5442 9.65491 59.5711C9.86985 59.6248 10.0848 59.6865 10.2966 59.7544C10.51 59.824 10.7172 59.8936 10.9228 59.971C11.1284 60.0485 11.3324 60.1338 11.5318 60.2255C11.9289 60.4026 12.3121 60.6065 12.675 60.8389C13.3946 61.2926 14.0378 61.8649 14.5254 62.5494H14.5238C13.5753 63.1549 12.5332 63.5707 11.4819 63.7889C11.2171 63.8426 10.9679 63.8853 10.6658 63.9264C10.5209 63.9469 10.376 63.9628 10.2328 63.9722C10.0895 63.9833 9.94617 63.9944 9.80443 63.996C9.23593 64.0149 8.68145 63.9707 8.15344 63.8758C7.09742 63.6877 6.15199 63.283 5.38412 62.7376C4.61314 62.189 4.01972 61.4981 3.62099 60.7283C3.36088 60.2129 3.17709 59.6991 3.09766 59.1094C3.09952 59.1091 3.10139 59.1089 3.10326 59.1086C3.10009 59.1081 3.09692 59.1077 3.09375 59.1072C3.17318 58.5144 3.3414 58.0006 3.53921 57.4726C3.84448 56.6837 4.23699 55.9438 4.65753 55.2641C5.07962 54.5811 5.5313 53.9614 5.98766 53.4081C6.21662 53.133 6.44715 52.8769 6.68078 52.6382C6.70445 52.6148 6.72788 52.5912 6.75125 52.5676C6.78632 52.5322 6.82127 52.4969 6.85678 52.4627L6.85703 52.4625C6.91613 52.4072 6.97524 52.352 7.03434 52.2952C7.14181 52.1924 7.30067 52.0691 7.4502 51.9632C8.05297 51.53 8.70558 51.1854 9.41582 50.9482L9.41426 50.9498Z" fill="url(#right-leaf_paint0_linear_66_5076)"></path>
        </g>
        <path id="right-leaf_Vector" d="M0.023367 59.8524L0 59.0019C0.0965677 58.9924 2.38303 58.9813 2.56059 58.9687C6.05728 58.7094 11.0305 57.6281 15.7966 54.0901C18.2404 52.2768 20.4256 49.9592 22.1156 47.3903C23.8413 44.7676 25.1045 41.8809 25.8724 38.8108C26.4144 36.6402 27.1916 32.1964 26.2991 26.8324C25.5811 22.5198 24.103 19.5271 22.9146 17.1242C21.2729 13.8043 19.2216 10.7295 16.8184 7.98825L17.3946 7.40332C19.8462 10.1999 21.938 13.3348 23.6139 16.7226C24.8288 19.1793 26.3396 22.2368 27.0795 26.6807C28 32.2074 27.1978 36.7904 26.6387 39.0305C25.8475 42.1986 24.5438 45.177 22.7635 47.8803C21.0206 50.5299 18.7668 52.9186 16.2483 54.7888C11.3685 58.4106 6.28314 59.5346 2.68988 59.8113C2.48273 59.8271 0.138627 59.8398 0.024926 59.8508L0.023367 59.8524Z" fill="url(#right-leaf_paint1_linear_66_5076)"></path>
    </g>
    <defs>
        <linearGradient id="right-leaf_paint0_linear_66_5076" x1="47.3999" y1="13.9688" x2="10.8446" y2="63.4451" gradientUnits="userSpaceOnUse">
            <stop offset="0.01" stop-color="#FFE6A6"></stop>
            <stop offset="0.48" stop-color="#FFCF53"></stop>
            <stop offset="0.735" stop-color="#FFC156"></stop>
            <stop offset="1" stop-color="#FFB35A"></stop>
        </linearGradient>
        <linearGradient id="right-leaf_paint1_linear_66_5076" x1="40.7407" y1="18.851" x2="11.95" y2="62.5735" gradientUnits="userSpaceOnUse">
            <stop offset="0.01" stop-color="#FFE6A6"></stop>
            <stop offset="0.48" stop-color="#FFCF53"></stop>
            <stop offset="1" stop-color="#FFB35A"></stop>
        </linearGradient>
        <clipPath id="right-leaf_clip0_66_5076">
            <rect width="33" height="64" fill="white"></rect>
        </clipPath>
    </defs>
</svg>